<svg preserveAspectRatio="none" overflow="visible" style="display: block;" width="112" height="92" viewBox="0 0 112 92" fill="none" xmlns="http://www.w3.org/2000/svg">
<g id="Call screen symbol">
<path id="Mark / upper fold" d="M67.3 3.04113C68.268 2.96322 69.3001 2.9845 70.241 3.24442C71.4594 3.58094 72.4864 4.60872 72.9939 5.74376C74.7082 9.57574 70.9053 30.1517 69.2432 34.6818C68.7254 36.0938 67.9918 37.1107 66.7424 37.976C64.4678 39.5513 61.5838 40.2645 58.9932 41.1593C53.4016 43.0905 46.0171 45.1803 40.8602 47.668C39.2931 48.4237 37.723 49.5162 36.7663 50.9982C33.9104 55.4232 32.8738 67.4518 30.7636 73.3794C27.4191 71.6967 23.8547 70.2013 20.4128 68.7032C17.4838 67.3509 10.1024 64.4411 9.72599 60.6157C8.71719 49.8559 11.782 38.3731 13.019 27.544C13.9122 19.6364 24.777 17.043 31.3881 14.924C42.9721 11.2112 55.5835 5.95621 67.3 3.04113Z" fill="#29232E"/>
<path id="Mark / lower fold" d="M78.7032 22.8705C84.1882 25.0646 90.1555 27.9356 95.5022 30.4599C98.3357 31.921 100.999 33.5259 101.863 36.8018C103.811 44.1946 100.615 52.6339 99.4712 60.0394C98.684 63.7643 97.2322 72.0255 93.2993 73.699C81.7712 78.6038 68.033 82.4289 56.0512 85.9767C51.8805 87.2635 38.8731 92.3444 36.9454 86.6463C35.4295 82.166 39.512 59.3056 43.5949 56.8733C47.6819 54.4385 69.3499 49.4726 72.0338 45.7998C75.1193 41.578 76.0711 28.6433 78.7032 22.8705Z" fill="#DDED9C"/>
</g>
</svg>
